<svg width="145" height="39" viewBox="0 0 145 39" fill="none" xmlns="http://www.w3.org/2000/svg">
<g filter="url(#filter0_dd_3339_684)">
<g clip-path="url(#clip0_3339_684)">
<rect x="3" y="2.5" width="32" height="32" rx="8" fill="white"/>
<rect x="3" y="2.5" width="32" height="32" rx="8" fill="url(#paint0_linear_3339_684)"/>
<path fill-rule="evenodd" clip-rule="evenodd" d="M19 4.53885C11.2895 4.53885 5.03885 10.7895 5.03885 18.5C5.03885 26.2106 11.2895 32.4612 19 32.4612C26.7106 32.4612 32.9612 26.2106 32.9612 18.5C32.9612 10.7895 26.7106 4.53885 19 4.53885ZM4.96118 18.5C4.96118 10.7466 11.2466 4.46118 19 4.46118C26.7535 4.46118 33.0389 10.7466 33.0389 18.5C33.0389 26.2535 26.7535 32.5389 19 32.5389C11.2466 32.5389 4.96118 26.2535 4.96118 18.5Z" fill="#D0D5DD"/>
<path fill-rule="evenodd" clip-rule="evenodd" d="M19 14.5779C16.8338 14.5779 15.0777 16.334 15.0777 18.5002C15.0777 20.6665 16.8338 22.4226 19 22.4226C21.1662 22.4226 22.9223 20.6665 22.9223 18.5002C22.9223 16.334 21.1662 14.5779 19 14.5779ZM15 18.5002C15 16.2911 16.7909 14.5002 19 14.5002C21.2091 14.5002 23 16.2911 23 18.5002C23 20.7094 21.2091 22.5002 19 22.5002C16.7909 22.5002 15 20.7094 15 18.5002Z" fill="#D0D5DD"/>
<path fill-rule="evenodd" clip-rule="evenodd" d="M19 15.8201C17.52 15.8201 16.3203 17.0198 16.3203 18.4997C16.3203 19.9796 17.52 21.1793 19 21.1793C20.4799 21.1793 21.6796 19.9796 21.6796 18.4997C21.6796 17.0198 20.4799 15.8201 19 15.8201ZM16.2427 18.4997C16.2427 16.9769 17.4772 15.7424 19 15.7424C20.5228 15.7424 21.7572 16.9769 21.7572 18.4997C21.7572 20.0225 20.5228 21.257 19 21.257C17.4772 21.257 16.2427 20.0225 16.2427 18.4997Z" fill="#D0D5DD"/>
<path d="M18.9612 2.5H19.0389V34.5H18.9612V2.5Z" fill="#D0D5DD"/>
<path d="M35 18.4609L35 18.5386L3 18.5386L3 18.4609L35 18.4609Z" fill="#D0D5DD"/>
<path d="M29.6019 2.5H29.6796V34.5H29.6019V2.5Z" fill="#D0D5DD"/>
<path d="M13.6407 2.5H13.7184V34.5H13.6407V2.5Z" fill="#D0D5DD"/>
<path d="M24.2815 2.5H24.3592V34.5H24.2815V2.5Z" fill="#D0D5DD"/>
<path d="M8.32031 2.5H8.39798V34.5H8.32031V2.5Z" fill="#D0D5DD"/>
<path d="M35 29.1016L35 29.1792L3 29.1792L3 29.1016L35 29.1016Z" fill="#D0D5DD"/>
<path d="M35 13.1406L35 13.2183L3 13.2183L3 13.1406L35 13.1406Z" fill="#D0D5DD"/>
<path d="M35 23.7812L35 23.8589L3 23.8589L3 23.7812L35 23.7812Z" fill="#D0D5DD"/>
<path d="M35 7.82031L35 7.89798L3 7.89798L3 7.82031L35 7.82031Z" fill="#D0D5DD"/>
<g filter="url(#filter1_dd_3339_684)">
<circle cx="19" cy="18.5" r="8" fill="url(#paint1_linear_3339_684)"/>
</g>
<path d="M3 18.5H35V21.7C35 26.1804 35 28.4206 34.1281 30.1319C33.3611 31.6372 32.1372 32.8611 30.6319 33.6281C28.9206 34.5 26.6804 34.5 22.2 34.5H15.8C11.3196 34.5 9.07937 34.5 7.36808 33.6281C5.86278 32.8611 4.63893 31.6372 3.87195 30.1319C3 28.4206 3 26.1804 3 21.7V18.5Z" fill="white" fill-opacity="0.2"/>
</g>
<rect x="3.1" y="2.6" width="31.8" height="31.8" rx="7.9" stroke="#D0D5DD" stroke-width="0.2"/>
</g>
<path d="M54.3537 10.9535V20.3427C54.3537 22.3171 52.9901 23.7376 50.7741 23.7376C48.5653 23.7376 47.1946 22.3171 47.1946 20.3427V10.9535H45V20.5202C45 23.5742 47.2869 25.7404 50.7741 25.7404C54.2614 25.7404 56.5554 23.5742 56.5554 20.5202V10.9535H54.3537Z" fill="#101828"/>
<path d="M61.6992 19.0217C61.6992 17.2816 62.7646 16.2873 64.2418 16.2873C65.6836 16.2873 66.5572 17.2319 66.5572 18.8157V25.4989H68.6808V18.56C68.6808 15.8611 67.1964 14.4478 64.9663 14.4478C63.3256 14.4478 62.2532 15.2077 61.7489 16.3654H61.614V14.5898H59.5756V25.4989H61.6992V19.0217Z" fill="#101828"/>
<path d="M76.6211 14.5898H74.3839V11.9762H72.2603V14.5898H70.6623V16.2944H72.2603V22.7362C72.2532 24.7177 73.766 25.6765 75.4421 25.641C76.1168 25.6339 76.5714 25.506 76.82 25.4137L76.4364 23.6594C76.2944 23.6879 76.0316 23.7518 75.6907 23.7518C75.0018 23.7518 74.3839 23.5245 74.3839 22.2958V16.2944H76.6211V14.5898Z" fill="#101828"/>
<path d="M78.9702 25.4989H81.0938V14.5898H78.9702V25.4989ZM80.0426 12.9066C80.7741 12.9066 81.3849 12.3384 81.3849 11.6424C81.3849 10.9464 80.7741 10.3711 80.0426 10.3711C79.304 10.3711 78.7003 10.9464 78.7003 11.6424C78.7003 12.3384 79.304 12.9066 80.0426 12.9066Z" fill="#101828"/>
<path d="M89.043 14.5898H86.8058V11.9762H84.6822V14.5898H83.0842V16.2944H84.6822V22.7362C84.6751 24.7177 86.1879 25.6765 87.864 25.641C88.5387 25.6339 88.9933 25.506 89.2418 25.4137L88.8583 23.6594C88.7163 23.6879 88.4535 23.7518 88.1126 23.7518C87.4237 23.7518 86.8058 23.5245 86.8058 22.2958V16.2944H89.043V14.5898Z" fill="#101828"/>
<path d="M93.75 10.9535H91.6264V25.4989H93.75V10.9535Z" fill="#101828"/>
<path d="M101.309 25.7191C103.688 25.7191 105.371 24.5472 105.854 22.7717L103.844 22.4094C103.461 23.4393 102.537 23.9648 101.33 23.9648C99.5117 23.9648 98.2901 22.7859 98.2333 20.6836H105.989V19.9308C105.989 15.989 103.631 14.4478 101.159 14.4478C98.1197 14.4478 96.1168 16.7631 96.1168 20.1154C96.1168 23.5032 98.0913 25.7191 101.309 25.7191ZM98.2404 19.0927C98.3256 17.5444 99.4478 16.2021 101.174 16.2021C102.821 16.2021 103.901 17.4237 103.908 19.0927H98.2404Z" fill="#101828"/>
<path d="M112.429 25.712C114.418 25.712 115.199 24.4975 115.582 23.8015H115.76V25.4989H117.834V10.9535H115.71V16.3583H115.582C115.199 15.6836 114.474 14.4478 112.443 14.4478C109.808 14.4478 107.869 16.5288 107.869 20.0657C107.869 23.5955 109.78 25.712 112.429 25.712ZM112.898 23.9009C111.001 23.9009 110.014 22.2319 110.014 20.0444C110.014 17.8782 110.98 16.2518 112.898 16.2518C114.751 16.2518 115.746 17.7646 115.746 20.0444C115.746 22.3384 114.73 23.9009 112.898 23.9009Z" fill="#101828"/>
<path d="M135.682 10.9535V20.3427C135.682 22.3171 134.318 23.7376 132.102 23.7376C129.893 23.7376 128.523 22.3171 128.523 20.3427V10.9535H126.328V20.5202C126.328 23.5742 128.615 25.7404 132.102 25.7404C135.589 25.7404 137.884 23.5742 137.884 20.5202V10.9535H135.682Z" fill="#101828"/>
<path d="M143.269 10.9535H141.074V25.4989H143.269V10.9535Z" fill="#101828"/>
<defs>
<filter id="filter0_dd_3339_684" x="0" y="0.5" width="38" height="38" filterUnits="userSpaceOnUse" color-interpolation-filters="sRGB">
<feFlood flood-opacity="0" result="BackgroundImageFix"/>
<feColorMatrix in="SourceAlpha" type="matrix" values="0 0 0 0 0 0 0 0 0 0 0 0 0 0 0 0 0 0 127 0" result="hardAlpha"/>
<feOffset dy="1"/>
<feGaussianBlur stdDeviation="1"/>
<feColorMatrix type="matrix" values="0 0 0 0 0.0627451 0 0 0 0 0.0941176 0 0 0 0 0.156863 0 0 0 0.06 0"/>
<feBlend mode="normal" in2="BackgroundImageFix" result="effect1_dropShadow_3339_684"/>
<feColorMatrix in="SourceAlpha" type="matrix" values="0 0 0 0 0 0 0 0 0 0 0 0 0 0 0 0 0 0 127 0" result="hardAlpha"/>
<feOffset dy="1"/>
<feGaussianBlur stdDeviation="1.5"/>
<feColorMatrix type="matrix" values="0 0 0 0 0.0627451 0 0 0 0 0.0941176 0 0 0 0 0.156863 0 0 0 0.1 0"/>
<feBlend mode="normal" in2="effect1_dropShadow_3339_684" result="effect2_dropShadow_3339_684"/>
<feBlend mode="normal" in="SourceGraphic" in2="effect2_dropShadow_3339_684" result="shape"/>
</filter>
<filter id="filter1_dd_3339_684" x="8" y="8.5" width="22" height="22" filterUnits="userSpaceOnUse" color-interpolation-filters="sRGB">
<feFlood flood-opacity="0" result="BackgroundImageFix"/>
<feColorMatrix in="SourceAlpha" type="matrix" values="0 0 0 0 0 0 0 0 0 0 0 0 0 0 0 0 0 0 127 0" result="hardAlpha"/>
<feOffset dy="1"/>
<feGaussianBlur stdDeviation="1"/>
<feColorMatrix type="matrix" values="0 0 0 0 0.0627451 0 0 0 0 0.0941176 0 0 0 0 0.156863 0 0 0 0.06 0"/>
<feBlend mode="normal" in2="BackgroundImageFix" result="effect1_dropShadow_3339_684"/>
<feColorMatrix in="SourceAlpha" type="matrix" values="0 0 0 0 0 0 0 0 0 0 0 0 0 0 0 0 0 0 127 0" result="hardAlpha"/>
<feOffset dy="1"/>
<feGaussianBlur stdDeviation="1.5"/>
<feColorMatrix type="matrix" values="0 0 0 0 0.0627451 0 0 0 0 0.0941176 0 0 0 0 0.156863 0 0 0 0.1 0"/>
<feBlend mode="normal" in2="effect1_dropShadow_3339_684" result="effect2_dropShadow_3339_684"/>
<feBlend mode="normal" in="SourceGraphic" in2="effect2_dropShadow_3339_684" result="shape"/>
</filter>
<linearGradient id="paint0_linear_3339_684" x1="19" y1="2.5" x2="19" y2="34.5" gradientUnits="userSpaceOnUse">
<stop stop-color="white"/>
<stop offset="1" stop-color="#D0D5DD"/>
</linearGradient>
<linearGradient id="paint1_linear_3339_684" x1="15" y1="26.5" x2="23" y2="10.5" gradientUnits="userSpaceOnUse">
<stop stop-color="#53389E"/>
<stop offset="1" stop-color="#6941C6"/>
</linearGradient>
<clipPath id="clip0_3339_684">
<rect x="3" y="2.5" width="32" height="32" rx="8" fill="white"/>
</clipPath>
</defs>
</svg>
